<svg xmlns="http://www.w3.org/2000/svg" width="85" height="36" viewBox="0 0 84.813 34.25">
  <defs>
    <style>
      .cls-1 {
        fill: #33334f;
        fill-rule: evenodd;
      }
    </style>
  </defs>
  <path class="cls-1" d="M239.124,50.693a9.477,9.477,0,0,1-1.662,3.187A12.581,12.581,0,0,1,227.4,59.1a12.825,12.825,0,0,1-13.028-10.539,13.31,13.31,0,0,1,6.115-13.752,12.8,12.8,0,0,1,18.662,6.576,12.49,12.49,0,0,1,.55,6.918c-0.026.127-.07,0.252-0.117,0.416H220.383c0.14,0.376.235,0.687,0.369,0.98a7.283,7.283,0,0,0,9.977,3.138,6.043,6.043,0,0,0,1.95-1.869,0.781,0.781,0,0,1,.516-0.333c1.91-.021,3.821-0.01,5.732,0A0.856,0.856,0,0,1,239.124,50.693Zm-5.289-6.709A6.608,6.608,0,0,0,226.52,38.4a6.874,6.874,0,0,0-6.163,5.585h13.478Zm64.847,4.74H279.437c0.093,0.3.148,0.546,0.246,0.776A7.184,7.184,0,0,0,290.5,52.3a14,14,0,0,0,1.2-1.346,0.9,0.9,0,0,1,.532-0.318c1.892-.022,3.784-0.013,5.676-0.01a1.509,1.509,0,0,1,.248.046A10.816,10.816,0,0,1,295.8,54.71a12.325,12.325,0,0,1-9.263,4.382,12.467,12.467,0,0,1-11.655-6.473,13.176,13.176,0,0,1,2.52-16.233,12.855,12.855,0,0,1,21.562,9.857A24.729,24.729,0,0,1,298.682,48.724ZM292.8,43.984a6.386,6.386,0,0,0-6.512-5.619,6.891,6.891,0,0,0-6.931,5.619H292.8ZM261.385,24.84h5.862v9.1h4.168v5.846h-4.142V58.3h-5.888V24.84Zm-18.229,0H249V58.3h-5.846V24.843Zm9.058,9.146h5.825V58.3h-5.825V33.988Zm-0.021-2.221V24.842l5.85,3.459Z" transform="translate(-214.156 -24.844)"/>
</svg>
